HIERARCHY
ROOT Hips
{
	OFFSET -14.64140 90.27770 -84.91600
	CHANNELS 6 Xposition Yposition Zposition Zrotation Xrotation Yrotation
	JOINT Spine
	{
		OFFSET 0.00000 13.20850 -1.60436
		CHANNELS 3 Zrotation Xrotation Yrotation
		JOINT Spine1
		{
			OFFSET 0.00000 8.61716 0.00000
			CHANNELS 3 Zrotation Xrotation Yrotation
			JOINT Spine2
			{
				OFFSET 0.00000 8.61717 0.00000
				CHANNELS 3 Zrotation Xrotation Yrotation
				JOINT Spine3
				{
					OFFSET 0.00000 8.61717 0.00000
					CHANNELS 3 Zrotation Xrotation Yrotation
					JOINT Neck
					{
						OFFSET 0.00000 11.07920 1.10792
						CHANNELS 3 Zrotation Xrotation Yrotation
						JOINT Neck1
						{
							OFFSET 0.00000 7.08032 0.00000
							CHANNELS 3 Zrotation Xrotation Yrotation
							JOINT Head
							{
								OFFSET 0.00000 7.08031 0.00000
								CHANNELS 3 Zrotation Xrotation Yrotation
								End site
								{
									OFFSET 0.00000 0.00000 0.00000
								}
							}
						}
					}
					JOINT RightShoulder
					{
						OFFSET -0.01000 7.91373 5.19711
						CHANNELS 3 Zrotation Xrotation Yrotation
						JOINT RightArm
						{
							OFFSET -18.41580 0.00000 0.00000
							CHANNELS 3 Zrotation Xrotation Yrotation
							JOINT RightForeArm
							{
								OFFSET -29.11090 0.00000 0.00000
								CHANNELS 3 Zrotation Xrotation Yrotation
								JOINT RightHand
								{
									OFFSET -24.65040 0.00000 0.00000
									CHANNELS 3 Zrotation Xrotation Yrotation
									JOINT RightHandThumb1
									{
										OFFSET -5.35114 -0.85590 3.97906
										CHANNELS 3 Zrotation Xrotation Yrotation
										JOINT RightHandThumb2
										{
											OFFSET -4.52789 0.00000 0.00000
											CHANNELS 3 Zrotation Xrotation Yrotation
											JOINT RightHandThumb3
											{
												OFFSET -2.46976 0.00000 0.00000
												CHANNELS 3 Zrotation Xrotation Yrotation
												End site
												{
													OFFSET 0.00000 0.00000 0.00000
												}
											}
										}
									}
									JOINT RightHandIndex1
									{
										OFFSET -14.26970 0.00000 2.88139
										CHANNELS 3 Zrotation Xrotation Yrotation
										JOINT RightHandIndex2
										{
											OFFSET -5.48836 0.00000 0.00000
											CHANNELS 3 Zrotation Xrotation Yrotation
											JOINT RightHandIndex3
											{
												OFFSET -3.01859 0.00000 0.00000
												CHANNELS 3 Zrotation Xrotation Yrotation
												End site
												{
													OFFSET 0.00000 0.00000 0.00000
												}
											}
										}
									}
									JOINT RightHandMiddle1
									{
										OFFSET -14.26970 0.00000 -0.09147
										CHANNELS 3 Zrotation Xrotation Yrotation
										JOINT RightHandMiddle2
										{
											OFFSET -6.17441 0.00000 0.00000
											CHANNELS 3 Zrotation Xrotation Yrotation
											JOINT RightHandMiddle3
											{
												OFFSET -3.56743 0.00000 0.00000
												CHANNELS 3 Zrotation Xrotation Yrotation
												End site
												{
													OFFSET 0.00000 0.00000 0.00000
												}
											}
										}
									}
									JOINT RightHandRing1
									{
										OFFSET -12.69180 0.00000 -3.06433
										CHANNELS 3 Zrotation Xrotation Yrotation
										JOINT RightHandRing2
										{
											OFFSET -5.62556 0.00000 0.00000
											CHANNELS 3 Zrotation Xrotation Yrotation
											JOINT RightHandRing3
											{
												OFFSET -3.56744 0.00000 0.00000
												CHANNELS 3 Zrotation Xrotation Yrotation
												End site
												{
													OFFSET 0.00000 0.00000 0.00000
												}
											}
										}
									}
									JOINT RightHandPinky1
									{
										OFFSET -11.11390 0.00000 -6.03719
										CHANNELS 3 Zrotation Xrotation Yrotation
										JOINT RightHandPinky2
										{
											OFFSET -4.52789 0.00000 0.00000
											CHANNELS 3 Zrotation Xrotation Yrotation
											JOINT RightHandPinky3
											{
												OFFSET -2.46976 0.00000 0.00000
												CHANNELS 3 Zrotation Xrotation Yrotation
												End site
												{
													OFFSET 0.00000 0.00000 0.00000
												}
											}
										}
									}
								}
							}
						}
					}
					JOINT LeftShoulder
					{
						OFFSET 0.01000 7.91373 5.19711
						CHANNELS 3 Zrotation Xrotation Yrotation
						JOINT LeftArm
						{
							OFFSET 18.41580 0.00000 0.00000
							CHANNELS 3 Zrotation Xrotation Yrotation
							JOINT LeftForeArm
							{
								OFFSET 29.11090 0.00000 0.00000
								CHANNELS 3 Zrotation Xrotation Yrotation
								JOINT LeftHand
								{
									OFFSET 24.65040 0.00000 0.00000
									CHANNELS 3 Zrotation Xrotation Yrotation
									JOINT LeftHandThumb1
									{
										OFFSET 5.35114 -0.85590 3.97906
										CHANNELS 3 Zrotation Xrotation Yrotation
										JOINT LeftHandThumb2
										{
											OFFSET 4.52789 0.00000 0.00000
											CHANNELS 3 Zrotation Xrotation Yrotation
											JOINT LeftHandThumb3
											{
												OFFSET 2.46977 0.00000 0.00000
												CHANNELS 3 Zrotation Xrotation Yrotation
												End site
												{
													OFFSET 0.00000 0.00000 0.00000
												}
											}
										}
									}
									JOINT LeftHandIndex1
									{
										OFFSET 14.26970 0.00000 2.88139
										CHANNELS 3 Zrotation Xrotation Yrotation
										JOINT LeftHandIndex2
										{
											OFFSET 5.48836 0.00000 0.00000
											CHANNELS 3 Zrotation Xrotation Yrotation
											JOINT LeftHandIndex3
											{
												OFFSET 3.01859 0.00000 0.00000
												CHANNELS 3 Zrotation Xrotation Yrotation
												End site
												{
													OFFSET 0.00000 0.00000 0.00000
												}
											}
										}
									}
									JOINT LeftHandMiddle1
									{
										OFFSET 14.26970 0.00000 -0.09147
										CHANNELS 3 Zrotation Xrotation Yrotation
										JOINT LeftHandMiddle2
										{
											OFFSET 6.17440 0.00000 0.00000
											CHANNELS 3 Zrotation Xrotation Yrotation
											JOINT LeftHandMiddle3
											{
												OFFSET 3.56744 0.00000 0.00000
												CHANNELS 3 Zrotation Xrotation Yrotation
												End site
												{
													OFFSET 0.00000 0.00000 0.00000
												}
											}
										}
									}
									JOINT LeftHandRing1
									{
										OFFSET 12.69180 0.00000 -3.06433
										CHANNELS 3 Zrotation Xrotation Yrotation
										JOINT LeftHandRing2
										{
											OFFSET 5.62556 0.00000 0.00000
											CHANNELS 3 Zrotation Xrotation Yrotation
											JOINT LeftHandRing3
											{
												OFFSET 3.56744 0.00000 0.00000
												CHANNELS 3 Zrotation Xrotation Yrotation
												End site
												{
													OFFSET 0.00000 0.00000 0.00000
												}
											}
										}
									}
									JOINT LeftHandPinky1
									{
										OFFSET 11.11390 0.00000 -6.03719
										CHANNELS 3 Zrotation Xrotation Yrotation
										JOINT LeftHandPinky2
										{
											OFFSET 4.52789 0.00000 0.00000
											CHANNELS 3 Zrotation Xrotation Yrotation
											JOINT LeftHandPinky3
											{
												OFFSET 2.46976 0.00000 0.00000
												CHANNELS 3 Zrotation Xrotation Yrotation
												End site
												{
													OFFSET 0.00000 0.00000 0.00000
												}
											}
										}
									}
								}
							}
						}
					}
					JOINT pCube4
					{
						OFFSET 0.00000 10.91090 1.10792
						CHANNELS 3 Zrotation Xrotation Yrotation
						End site
						{
							OFFSET 0.00000 0.00000 0.00000
						}
					}
				}
			}
		}
	}
	JOINT RightUpLeg
	{
		OFFSET -9.98441 0.00000 0.00000
		CHANNELS 3 Zrotation Xrotation Yrotation
		JOINT RightLeg
		{
			OFFSET 0.00000 -42.11790 0.00000
			CHANNELS 3 Zrotation Xrotation Yrotation
			JOINT RightFoot
			{
				OFFSET 0.00000 -45.00020 -0.00001
				CHANNELS 3 Zrotation Xrotation Yrotation
				JOINT RightForeFoot
				{
					OFFSET 0.00000 -3.74820 0.00000
					CHANNELS 3 Zrotation Xrotation Yrotation
					JOINT RightToeBase
					{
						OFFSET 0.00000 0.06325 14.43120
						CHANNELS 3 Zrotation Xrotation Yrotation
						End site
						{
							OFFSET 0.00000 0.00000 0.00000
						}
					}
				}
			}
		}
	}
	JOINT LeftUpLeg
	{
		OFFSET 9.98441 0.00000 0.00000
		CHANNELS 3 Zrotation Xrotation Yrotation
		JOINT LeftLeg
		{
			OFFSET 0.00000 -42.11800 0.00000
			CHANNELS 3 Zrotation Xrotation Yrotation
			JOINT LeftFoot
			{
				OFFSET 0.00000 -45.00070 0.00000
				CHANNELS 3 Zrotation Xrotation Yrotation
				JOINT LeftForeFoot
				{
					OFFSET 0.00000 -3.74824 0.00000
					CHANNELS 3 Zrotation Xrotation Yrotation
					JOINT LeftToeBase
					{
						OFFSET 0.00000 0.06325 14.43110
						CHANNELS 3 Zrotation Xrotation Yrotation
						End site
						{
							OFFSET 0.00000 0.00000 0.00000
						}
					}
				}
			}
		}
	}
}
MOTION
Frames: 4
Frame Time: 0.050000
0.030665342624628514 -0.04859104655822938 0.04840675998274291 -0.04393414626217496 0.02022822036181189 -0.0372679565694639 1.7087518798227226 1.7197530837060009 -1.7124495425865298 -0.6857944221734115 3.606626474161605 0.39535530029284693 -0.8392174463649704 -1.3604079462538894 0.9020712614458251 -0.7683377738016228 -0.5311171855523547 -0.34517364080942364 0.18000977629319811 11.978526675421897 -0.9843108466841874 0.43446960377545923 -0.424577294875483 -2.482782009129022 0.8513307957246131 -16.162107472646273 -0.23746229619632356 -6.955423987459975 2.709315789276749 -16.607316570597867 77.1118684342617 1.1136550639473193 9.04297203930735 -19.134998898729734 6.9970368748946195 79.19975359439046 8.073967253936853 0.41404489035668385 3.897752327198596 4.489734964973324 -0.12044772387446173 -1.5797291716899229 -0.009721630581701644 0.02683249101684326 -56.26903856039876 0.02731826302504463 0.0031249837820609815 -56.20227845511686 -38.75142203412773 -0.0287803761123761 0.03922593962243923 -0.013123400978463352 0.0160961988406814 0.009061119873038207 0.0038347546669049784 0.031071420106704033 0.015094040132465708 -36.655539392867624 0.008668449014602076 -0.011733317889148708 0.0012866500264082019 0.02002733997876245 0.01234159432500198 -0.017631105892266605 0.01438757453846301 0.0007087894807403248 -19.786328554844864 0.0390645195671083 -0.02562866264951272 -0.02401006009653546 0.015557402745801585 0.006221881349355917 0.012089034428931758 -0.03386318413317679 -0.0266732247762078 24.010193072432674 -0.04522913473667107 -0.042667790119544205 28.874980620299993 0.001851013626866219 0.0045396442736535475 28.844378865866002 0.00033353468165120767 -0.04121733403914796 6.6789214091703935 1.7381952046751723 14.436183467349498 -75.94351713003283 19.264201656402303 -9.426120697427299 15.110340793019898 4.103739044660548 -57.90349999530822 -15.915730860256293 6.67984929187091 -2.94347992547384 -0.44289994909871266 0.052720776521505634 -8.097164577338333 0.02780473140567814 -0.007414253399436025 44.56673605830701 0.0019337938065969234 -0.010150144126745642 44.53364463348957 12.451477573393506 0.0010687034576710597 0.022332790873680734 0.04179550592415118 0.030393707651284796 0.018750541637808833 0.012614235076082806 0.025134337855228915 0.015417823276523687 11.154297186277581 0.049004250485946234 0.0002836152766965925 0.016129150768696057 0.033964517813244104 0.019973720306104902 -0.009787439953717947 -0.04988457497343372 -0.03136279359328006 4.740963921427684 0.02651784248111367 0.01534926391302518 -0.018787894834779682 -0.026524593459143153 -0.04142982285582635 0.036551304812785054 -0.011376006021465298 -0.04957236184088583 -5.6328214558017065 0.008000507105217498 -0.007342870305684732 -6.708707364760578 -0.03885908245657421 0.0018346767691961123 -6.757341965981838 0.03751522906035653 0.025145615811997528 0.04535783072922583 0.04395064777324968 4.7634711363188915e-06 8.029494230736073 3.5115302060269316 -19.255524613752655 -0.0037447370853134518 10.393329559998204 0.047654074330581914 -5.664015108878906 -15.67798391997389 3.2405311580395733 0.018729724608952312 0.00345804333458697 -0.010704950754699849 0.04967924846536823 4.7383003138609485 0.024103821005196743 12.446614530249565 -8.214037988352862 6.931058106545063 -0.0062391976856253865 46.33730639505712 -0.02068596249928884 -4.311782866325789 -14.713005652416822 -3.850455541763576 0.0014967720728662703 0.0287206034473975 0.012489499814723208 -0.010260348817870519 -10.748494019220264 -0.04037990853621021 
0.03454289721918063 0.0005405945400669743 -0.026930504704108345 -0.00774208566574772 -0.0319475381708556 0.037215874803999745 1.4580868931351443 1.6278388147427714 -1.6787653662678605 -0.706479339932834 3.6399436991339984 0.32532700596909175 -0.8273988059743831 -1.4329745206798132 0.9211245198105238 -0.7080600687926752 -0.6275353212293836 -0.37527952457977415 0.15080722877163294 12.105207170881823 -0.9349745273640406 0.4233418294905658 -0.4772280070145529 -2.55589059022519 0.8350749791577861 -16.174906949446616 -0.20994946211452492 -6.482628935188864 2.574844804155572 -16.452291274922878 77.11231012365148 0.6892029360086048 8.711209377811821 -19.266571083575972 8.032058080539104 75.26407711116399 9.018839127932837 0.4492647845080729 4.446748645949397 4.4936913538884395 -0.13346709792062017 -1.5904659984070157 0.03502041385964206 0.010358772482713234 -56.26829405996039 -0.03303195748932842 -0.021375899636307233 -56.20777226853325 -38.780215850555415 -0.01272300075677082 -0.008617911905285996 -0.012613318845506448 0.03754748619199504 0.01593753004204527 0.029090506203763578 -0.028065532027232217 -0.029366363774212475 -36.68452012146933 0.02615722735536596 -0.00904636994404092 0.02513387809256073 -0.017914196193483525 0.03295728187054807 -0.0025824012267196485 -0.030726471806761347 -0.010048789187295666 -19.71669365958486 -0.01003706084544023 0.002899019725606204 -0.0331674893826932 -0.020007685350359662 0.010356825758747471 0.004515699553825544 0.006860857104239711 0.04367959713404825 24.08825985028441 -0.021803213897755937 -0.028079748814306034 28.8601903968336 0.004136047265773037 -0.03622837705883511 28.820909572624686 -0.0006955909561644747 0.011530539937338966 6.286858623600352 1.6602030438054844 14.507097373215833 -76.56091920235008 17.58937805967739 -9.148955920095506 15.456058698101772 6.711469886878138 -55.44092745542832 -16.97745561139562 8.76999538571691 -4.250854908934897 -0.49868025923846115 0.0777298567208073 -8.150616591165726 0.011548911812006896 0.010176052893696745 44.55790047392496 -0.014710767484933935 0.03189760390943523 44.5732942580439 12.437644749376098 -0.015191400427970722 0.0308152330345265 -0.010245946240559209 0.018199896760221577 -0.032302242443284 -0.008167060379462342 -0.0035913131647602697 0.03443768198989932 11.15480933937512 0.005749816334061147 0.001923325332007649 0.0163189507140436 -0.015426794512591168 0.04674390045220787 0.019862267147693936 0.006996402411463285 0.045633918057530164 4.814254441942143 0.0053132420329599275 -0.008936765609748916 0.042080915218263494 -0.003047145089566967 -0.04486774160697066 -0.005157678122881098 0.030664161329290212 -0.03123378228712313 -5.576083321294413 -0.014336035910622016 -0.037115617180782344 -6.67170403518768 0.003333196962847686 0.03990488308479448 -6.722947570362965 -0.004039629404938747 -0.03863434096145956 0.015828177563105793 -0.04989296410597737 0.008327449530914572 8.061661572727681 3.534873304896648 -19.18143774193962 -0.04900586070598328 10.40740172294137 0.03565560454223167 -5.589500886075391 -15.64255867933704 3.1881281904802754 0.027596162091941163 -0.018903558060518123 0.021064396768226194 -0.016046026869552452 4.689384061536534 0.04143244956665167 12.48025819241326 -8.247047248413567 6.867822749267713 -0.0381722381573055 46.348416708147674 0.024224143984570408 -4.36698258387209 -14.750544381948993 -3.8183620791979185 0.03494964919925629 -0.04005413471947804 -0.03850047233600238 0.02945410505381185 -10.755695168048154 -0.029060758261006504 
-0.034448928643446224 0.0260652090291552 -0.003611709418306703 -0.024060266334782667 0.03057282427382235 -0.004773361220859168 0.9161190842515303 1.5154718062256314 -1.5908608671131703 -0.5905271974836102 3.754297728367083 0.309152167337325 -0.7890228256057352 -1.521991738654306 0.9706557818957153 -0.7219294879337599 -0.6075098663923992 -0.38868601641924316 0.07172378536642154 12.268602373972634 -0.993717809077513 0.44865372011203863 -0.5876460799160244 -2.725008427331808 0.8655118516631123 -16.124716286247317 -0.2329147531869535 -5.4869792907728145 2.2424824592658434 -16.154704944111245 76.6818898562751 1.598620181649147 8.487642688488327 -19.260046443626788 8.519063718119597 73.72928171922085 10.098046678205705 0.46368762602642555 4.753863086040196 4.514732534155678 -0.08908057786941093 -1.641831308161302 0.014104326234190044 -0.02574642558969479 -56.24653356730068 0.012560669759257811 -0.0029722093304765233 -56.20075893192915 -38.800945897706114 0.020601934331003977 0.018052234176573628 -0.022231125598804052 -0.008602090216346293 0.037378842458478306 -0.026195192953647764 0.047860986704605556 0.016060935183475143 -36.72732851105407 0.023519645017121834 0.030815583098068346 0.03361825148926651 0.027720987763075154 0.02757048480020704 0.008595138219810113 -0.036936355800744586 0.0017895869095866904 -19.77791542648671 0.0040933740102023965 0.02736409722369551 0.033308547737487156 -0.01886928722964045 0.002624052390523256 -0.02684266851055291 0.014670096118228261 -0.03730466524912485 24.04082282592531 0.028192804212646215 -0.028440058097427445 28.86147511291834 0.04518462061360331 0.027487697483579935 28.86231601421389 0.017870951277273554 -0.018113700124431847 5.634267228751733 1.5987819979624267 14.513079838610064 -76.88140133887575 16.886476974767728 -8.946945737971927 15.909115972512803 7.679815295692793 -55.92441221134275 -17.965647570797945 10.541096298922374 -5.456736083366627 -0.4266130080944903 0.10788642792245064 -8.082840000594802 -0.006143538735270363 0.04501734080002605 44.54338673333585 -0.035014459041501744 -0.005072506780907073 44.529585869702586 12.417489227272158 -0.02807368580614019 0.023319745882927664 0.0072398966394996165 0.02151075089470047 -0.02072456619784706 0.03869845995208283 0.040127153890770914 0.012491010761205006 11.059138322610046 -0.03239539485744058 0.013615354629873693 0.008660920376680932 -0.0060806396837362366 0.007135533902209544 0.029424940889414747 0.026952915818389395 -0.002945151017985973 4.744238548413652 0.031609414134967886 0.011493983518163229 -0.0022717419799651367 0.014331756097948685 0.011417523304660027 -0.009729281672600561 -0.017680878441806547 0.034288338825325455 -5.585575649164668 -0.0023487032244391888 -0.031538866163029124 -6.720813670478049 -0.02852936375441351 -0.021147353537398633 -6.758831541068675 -0.004879696993138082 0.04632412685459087 -0.027642597716621906 0.04150513360275675 -0.033582547165089814 8.079559311074863 3.465215496872196 -19.25773368466392 -0.04120267703076832 10.427940791541555 0.013419320272700846 -5.648701892764002 -15.64012707645971 3.2204618891945755 0.026845854363328404 0.03412831485469224 0.029741741473010015 0.010683716825623604 4.677668911377515 -0.01623385278573769 12.441967446970317 -8.198949575095941 6.922646036058826 0.04158455013321728 46.40863894248077 -0.007524191115122328 -4.324013283938029 -14.753511787633995 -3.8515608716692107 -0.001808411458818126 0.025136395127570783 -0.028700920287440965 -0.02652749060769898 -10.772832261970127 -0.04918604260706641 
-0.0032825109557264097 0.03834462798778157 0.004721885374225863 -0.01856983558366285 -0.032228819344052716 -0.037484462164531156 0.10831003748466281 1.47665135225188 -1.4256090222091164 -0.6095648322509816 3.8021625983110834 0.3718464045301889 -0.7585920597419264 -1.5910140188509276 1.0024331016854904 -0.7242402539755404 -0.6818881090602193 -0.42213778289407117 0.10519263105812048 12.460799428077706 -0.9858172545382075 0.48981944728164295 -0.6027105184538346 -3.011868241331855 0.9405753563699406 -15.967590397647886 -0.29263871102655553 -4.363852732332105 1.9586339055333613 -15.810756408416236 75.55759703719929 3.510854091298126 8.4779181018108 -18.82045373685556 8.60812367441579 75.11284619107525 11.244674456085425 0.39477505858721723 4.778469346719666 4.4855332738393745 -0.11694775538919222 -1.5969814017007484 -0.04417763068881767 -0.04992637675361098 -56.249558112310034 -0.004243557281859375 0.004418163155122324 -56.19391706961651 -38.78731704606965 -0.04794513505186064 -0.014462726344218834 0.022774153276171313 0.012416876119741406 0.01648196850494696 -0.005789898633242313 0.016719067688733078 0.013531446954979468 -36.68809432540511 0.0024843997180312005 -0.015150575799863175 -0.0008326738869392876 -0.001941123700437951 0.023132435008884275 0.0030949970927995466 -0.046807730803053074 -0.017599937450046097 -19.78604716571276 0.04079632886831147 0.029831928036000908 -0.01741731556374538 -0.008294552508871532 0.030681940457156394 -0.03401154082662254 -0.0025211617199038614 0.04382013867897979 24.03869995004433 0.010199826248348599 -0.03198592679164034 28.81561940231293 -0.02010371432095527 0.016035276955673375 28.889326975453226 0.012151095800175638 -0.027626861053368774 4.94441673879544 1.4109433920008414 14.486494602863482 -76.70993426092856 17.570201714963922 -8.881831927887278 16.508091453523882 6.389589329049036 -59.89312963485679 -18.41323396403721 11.781998806685383 -6.666552606300301 -0.5023966547457257 0.0420707277631453 -8.080608629224209 0.007244148947852168 0.03473381246646563 44.548659424276124 0.03771095798304085 0.036031704452437266 44.58710988330404 12.471936012438151 -0.001906418880271932 0.0408412686341812 0.003322908009196196 -0.018866424497689546 -1.4964775184705606e-05 -0.010231504586158215 -7.235067070703105e-05 0.028876397253272942 11.093935004614446 -0.0024174261189228263 0.00869925755891598 0.01928918012884842 -0.04062657781713638 0.046185679747979505 -0.049630258488167024 0.04678791901490379 0.034301567609179 4.7875539423026385 0.006221147472492837 0.018783067230575375 -0.039490053062314304 -0.04794518051079336 -0.03165879152894583 -0.0009809096388546101 -0.019912218207921783 0.033359426127384566 -5.640757221960407 0.03225429677987169 -0.006483375077754624 -6.757141697728759 -0.03234804754198932 0.0046229423856563095 -6.675456122561386 -0.04134613833623494 -0.0466380977561406 0.01916684397388623 0.02095917172321652 -0.019370902375156488 7.996871272487328 3.4734758479382317 -19.242144695359123 -0.0034924773430696793 10.370229828002369 -5.516836357626065e-05 -5.592428467751935 -15.687808034043965 3.2236110818226935 -0.031240198520709396 -0.005800124083047124 0.048754212610817145 0.017424576606454068 4.665501290139289 -0.01951721197155166 12.467187543242892 -8.249392901849808 6.8575052974651225 -0.03943220505632804 46.37068495842195 -0.042032240328038185 -4.3459035904337044 -14.715328614051298 -3.853859442215244 0.03806143286901812 0.009543025823517976 -0.008163312329181832 -0.003352990377313723 -10.774659608292646 0.01250224908641609 
